<svg xmlns="http://www.w3.org/2000/svg" xmlns:xlink="http://www.w3.org/1999/xlink" version="1.1" data-diagram-type="DESCRIPTION" style="width:1210px;height:77px;background:#FFFFFF;" width="1210px" height="77px" viewBox="0 0 1210 77" zoomAndPan="magnify" preserveAspectRatio="none" contentStyleType="text/css"><?plantuml 1.2026.7beta3?><defs/><g><!--entity aruco_reader--><g class="entity" data-qualified-name="aruco_reader" id="ent0001" data-source-line="3"><polygon points="16,16,26,6,153.6445,6,153.6445,42.2969,143.6445,52.2969,16,52.2969,16,16" fill="#F1F1F1" style="stroke:#181818;stroke-width:0.5;stroke-linejoin:miter;stroke-miterlimit:10;"/><line x1="143.6445" y1="16" x2="153.6445" y2="6" style="stroke:#181818;stroke-width:0.5;"/><line x1="16" y1="16" x2="143.6445" y2="16" style="stroke:#181818;stroke-width:0.5;"/><line x1="143.6445" y1="16" x2="143.6445" y2="52.2969" style="stroke:#181818;stroke-width:0.5;"/><text x="31" y="38.9951" fill="#000000" font-size="14" lengthAdjust="spacing" textLength="97.6445" font-family="sans-serif">Aruco_Reader</text></g><!--entity aruco_pose--><g class="entity" data-qualified-name="aruco_pose" id="ent0002" data-source-line="4"><path d="M218.64,16 L411.515,16 C416.515,16 416.515,29.1484 416.515,29.1484 C416.515,29.1484 416.515,42.2969 411.515,42.2969 L218.64,42.2969 C213.64,42.2969 213.64,29.1484 213.64,29.1484 C213.64,29.1484 213.64,16 218.64,16" style="stroke:#181818;stroke-width:0.5;" fill="#F1F1F1"/><path d="M411.515,16 C406.515,16 406.515,29.1484 406.515,29.1484 C406.515,42.2969 411.515,42.2969 411.515,42.2969" style="stroke:#181818;stroke-width:0.5;" fill="none"/><text x="218.64" y="33.9951" fill="#000000" font-size="14" lengthAdjust="spacing" textLength="182.875" font-family="sans-serif">\aruco\pose:PoseStamped</text></g><!--entity compute_pose--><g class="entity" data-qualified-name="compute_pose" id="ent0004" data-source-line="6"><polygon points="476.52,16,486.52,6,620.2759,6,620.2759,42.2969,610.2759,52.2969,476.52,52.2969,476.52,16" fill="#F1F1F1" style="stroke:#181818;stroke-width:0.5;stroke-linejoin:miter;stroke-miterlimit:10;"/><line x1="610.2759" y1="16" x2="620.2759" y2="6" style="stroke:#181818;stroke-width:0.5;"/><line x1="476.52" y1="16" x2="610.2759" y2="16" style="stroke:#181818;stroke-width:0.5;"/><line x1="610.2759" y1="16" x2="610.2759" y2="52.2969" style="stroke:#181818;stroke-width:0.5;"/><text x="491.52" y="38.9951" fill="#000000" font-size="14" lengthAdjust="spacing" textLength="103.7559" font-family="sans-serif">Compute_Pose</text></g><!--entity estimated_pose--><g class="entity" data-qualified-name="estimated_pose" id="ent0006" data-source-line="8"><path d="M685.28,16 L909.1765,16 C914.1765,16 914.1765,29.1484 914.1765,29.1484 C914.1765,29.1484 914.1765,42.2969 909.1765,42.2969 L685.28,42.2969 C680.28,42.2969 680.28,29.1484 680.28,29.1484 C680.28,29.1484 680.28,16 685.28,16" style="stroke:#181818;stroke-width:0.5;" fill="#F1F1F1"/><path d="M909.1765,16 C904.1765,16 904.1765,29.1484 904.1765,29.1484 C904.1765,42.2969 909.1765,42.2969 909.1765,42.2969" style="stroke:#181818;stroke-width:0.5;" fill="none"/><text x="685.28" y="33.9951" fill="#000000" font-size="14" lengthAdjust="spacing" textLength="213.8965" font-family="sans-serif">\estimated\pose:PoseStamped</text></g><!--entity predictive_follower_fsm--><g class="entity" data-qualified-name="predictive_follower_fsm" id="ent0008" data-source-line="10"><polygon points="974.17,16,984.17,6,1185.5333,6,1185.5333,42.2969,1175.5333,52.2969,974.17,52.2969,974.17,16" fill="#F1F1F1" style="stroke:#181818;stroke-width:0.5;stroke-linejoin:miter;stroke-miterlimit:10;"/><line x1="1175.5333" y1="16" x2="1185.5333" y2="6" style="stroke:#181818;stroke-width:0.5;"/><line x1="974.17" y1="16" x2="1175.5333" y2="16" style="stroke:#181818;stroke-width:0.5;"/><line x1="1175.5333" y1="16" x2="1175.5333" y2="52.2969" style="stroke:#181818;stroke-width:0.5;"/><text x="989.17" y="38.9951" fill="#000000" font-size="14" lengthAdjust="spacing" textLength="171.3633" font-family="sans-serif">Predictive_Follower_FSM</text></g><!--link aruco_reader to aruco_pose--><g class="link" data-entity-1="ent0001" data-entity-2="ent0002" id="lnk3" data-source-line="5" data-link-type="dependency"><path d="M154,29.15 C172.65,29.15 188.27,29.15 208.33,29.15" style="stroke:#181818;stroke-width:1;" fill="none" id="aruco_reader-to-aruco_pose"/><polygon points="213.33,29.15,204.33,25.15,208.33,29.15,204.33,33.15,213.33,29.15" fill="#181818" style="stroke:#181818;stroke-width:1;stroke-linejoin:miter;stroke-miterlimit:10;"/></g><!--link aruco_pose to compute_pose--><g class="link" data-entity-1="ent0002" data-entity-2="ent0004" id="lnk5" data-source-line="7" data-link-type="dependency"><path d="M416.87,29.15 C436.83,29.15 452.4,29.15 471.14,29.15" style="stroke:#181818;stroke-width:1;" fill="none" id="aruco_pose-to-compute_pose"/><polygon points="476.14,29.15,467.14,25.15,471.14,29.15,467.14,33.15,476.14,29.15" fill="#181818" style="stroke:#181818;stroke-width:1;stroke-linejoin:miter;stroke-miterlimit:10;"/></g><!--link compute_pose to estimated_pose--><g class="link" data-entity-1="ent0004" data-entity-2="ent0006" id="lnk7" data-source-line="9" data-link-type="dependency"><path d="M620.46,29.15 C639.12,29.15 654.73,29.15 675.08,29.15" style="stroke:#181818;stroke-width:1;" fill="none" id="compute_pose-to-estimated_pose"/><polygon points="680.08,29.15,671.08,25.15,675.08,29.15,671.08,33.15,680.08,29.15" fill="#181818" style="stroke:#181818;stroke-width:1;stroke-linejoin:miter;stroke-miterlimit:10;"/></g><!--link estimated_pose to predictive_follower_fsm--><g class="link" data-entity-1="ent0006" data-entity-2="ent0008" id="lnk9" data-source-line="11" data-link-type="dependency"><path d="M914.39,29.15 C934.15,29.15 949.56,29.15 969,29.15" style="stroke:#181818;stroke-width:1;" fill="none" id="estimated_pose-to-predictive_follower_fsm"/><polygon points="974,29.15,965,25.15,969,29.15,965,33.15,974,29.15" fill="#181818" style="stroke:#181818;stroke-width:1;stroke-linejoin:miter;stroke-miterlimit:10;"/></g><?plantuml-src TP312i8m44Jl-OhGUt_0Wo12RqAnrq88pLO3JJSc6_rzswtLLFGImhoPoP01UfA4CjZBbQIn0JgoE0eneW5P74BgK9r16mY5r55g5W8BufOWJQQMnTPZX5qz7Grfvy5a_Xc9F2hBSf-pvRKZEfy8r5p2wUubPFdvokaDMvT09EiqWVczvesNL5x1dLzyMLK7C7RwbJke2eS17n1KrPouq7zOlx8-Eh4juku_rYS0?></g></svg>